<?xml version="1.0" encoding="utf-8"?>
<!-- Generator: Adobe Illustrator 16.0.0, SVG Export Plug-In . SVG Version: 6.00 Build 0)  -->
<!DOCTYPE svg PUBLIC "-//W3C//DTD SVG 1.1//EN" "http://www.w3.org/Graphics/SVG/1.1/DTD/svg11.dtd">
<svg version="1.1" id="Layer_1" xmlns="http://www.w3.org/2000/svg" xmlns:xlink="http://www.w3.org/1999/xlink" x="0px" y="0px"
	 width="841.891px" height="595.281px" viewBox="0 0 841.891 595.281" enable-background="new 0 0 841.891 595.281"
	 xml:space="preserve">
<g>
	<g>
		<g>
			<path fill="#FFFFFF" d="M524.336,191.018c-11.062-10.725-23.771-19.757-37.725-26.663c6.737,10.237,12.666,22.083,17.596,35.294
				C511.284,197.111,518.011,194.224,524.336,191.018z"/>
			<path fill="#FFFFFF" d="M346.739,287.348h63.907v-54.15c-19.099-0.83-37.563-3.521-54.768-7.916
				C350.727,244.097,347.5,265.166,346.739,287.348z"/>
			<path fill="#FFFFFF" d="M354.629,365.011c17.585-4.61,36.498-7.457,56.018-8.319v-48.758h-63.903
				C347.455,328.177,350.223,347.488,354.629,365.011z"/>
			<path fill="#FFFFFF" d="M362.234,205.701c15.176,3.778,31.49,6.109,48.412,6.885v-63.171c-2.979,0.206-5.929,0.5-8.856,0.881
				C385.97,159.888,372.115,179.686,362.234,205.701z"/>
			<path fill="#FFFFFF" d="M315.623,402.391c13.268,13.334,29.043,24.155,46.543,31.727c-8.477-12.097-15.752-26.701-21.512-43.256
				C331.671,394.175,323.282,398.031,315.623,402.391z"/>
			<path fill="#FFFFFF" d="M361.988,161.242c-15.911,6.907-30.373,16.519-42.832,28.254c7.169,3.843,14.925,7.221,23.129,10.169
				C347.721,185.084,354.377,172.157,361.988,161.242z"/>
			<path fill="#FFFFFF" d="M336.009,219.22c-11.188-3.972-21.642-8.723-31.167-14.203c-18.317,22.912-29.988,51.325-32.123,82.331
				h53.404C326.879,262.824,330.349,239.82,336.009,219.22z"/>
			<path fill="#FFFFFF" d="M326.129,307.934H272.72c2.018,29.35,12.556,56.397,29.21,78.631
				c9.911-5.955,20.937-11.133,32.824-15.424C329.855,351.82,326.839,330.525,326.129,307.934z"/>
			<path fill="#FFFFFF" d="M402.166,445.037c2.804,0.35,5.629,0.635,8.479,0.83v-68.564c-17.522,0.824-34.444,3.336-50.126,7.379
				C370.552,413.222,385.243,434.966,402.166,445.037z"/>
			<path fill="#FFFFFF" d="M511.758,371.059c10.586,3.834,20.513,8.356,29.591,13.565c15.835-21.863,25.86-48.176,27.821-76.687
				h-48.804C519.657,330.494,516.652,351.766,511.758,371.059z"/>
			<path fill="#FFFFFF" d="M486.448,431.009c15.518-7.654,29.494-17.936,41.389-30.26c-6.824-3.67-14.199-6.959-22.017-9.83
				C500.543,406.052,494.008,419.564,486.448,431.009z"/>
			<path fill="#FFFFFF" d="M420.939,0C256.564,0,123.31,133.266,123.31,297.634c0,164.369,133.254,297.646,297.629,297.646
				s297.64-133.271,297.64-297.646S585.316,0,420.939,0z M420.945,477.14c-98.976,0-179.501-80.52-179.501-179.5
				c0-98.981,80.525-179.501,179.501-179.501c98.977,0,179.501,80.52,179.501,179.501S519.921,477.14,420.945,477.14z"/>
			<path fill="#FFFFFF" d="M446.183,151.205c-4.909-0.843-9.896-1.44-14.95-1.792v63.372c18.521-0.546,36.416-3,53.002-7.138
				C474.666,180.473,461.375,161.113,446.183,151.205z"/>
			<path fill="#FFFFFF" d="M510.477,219.204c5.667,20.601,9.136,43.616,9.892,68.144h48.798
				c-2.073-30.214-13.211-57.958-30.726-80.551C529.789,211.515,520.434,215.674,510.477,219.204z"/>
			<path fill="#FFFFFF" d="M431.233,445.865c4.941-0.336,9.82-0.92,14.62-1.729c16.272-10.44,30.373-31.752,40.106-59.424
				c-17.092-4.412-35.629-7.031-54.728-7.604L431.233,445.865L431.233,445.865z"/>
			<path fill="#FFFFFF" d="M490.596,225.23c-18.62,4.766-38.68,7.566-59.363,8.141v53.976h68.525
				C498.99,265.152,495.758,244.061,490.596,225.23z"/>
			<path fill="#FFFFFF" d="M499.752,307.934h-68.52v48.586c21.296,0.571,41.773,3.418,60.665,8.348
				C496.287,347.386,499.041,328.126,499.752,307.934z"/>
		</g>
	</g>
</g>
<path fill="#503F9D" d="M420.945,4.155c-161.825,0-293.485,131.651-293.485,293.485c0,161.833,131.66,293.483,293.485,293.483
	c161.828,0,293.485-131.648,293.485-293.483S582.773,4.155,420.945,4.155z M389.626,56.731c4.787-0.623,9.609-1.104,14.481-1.44
	v103.285c-27.667-1.269-54.342-5.08-79.155-11.256C341.109,104.785,363.761,72.415,389.626,56.731z M404.107,192.277v88.536H299.617
	c1.246-36.268,6.521-70.715,14.943-101.478C342.69,186.52,372.88,190.92,404.107,192.277z M324.55,74.628
	c-12.443,17.847-23.326,38.982-32.215,62.822c-13.413-4.821-26.094-10.343-37.815-16.626
	C274.89,101.637,298.534,85.921,324.55,74.628z M231.116,146.201c15.574,8.959,32.666,16.728,50.958,23.221
	c-9.254,33.683-14.927,71.294-16.163,111.391h-87.316C182.086,230.117,201.167,183.662,231.116,146.201z M178.597,314.47h87.324
	c1.161,36.938,6.091,71.755,14.102,103.345c-19.436,7.015-37.462,15.481-53.668,25.217
	C199.125,406.681,181.896,362.457,178.597,314.47z M248.743,468.908c12.523-7.129,26.239-13.434,40.927-18.852
	c9.417,27.067,21.313,50.946,35.172,70.725C296.23,508.402,270.437,490.71,248.743,468.908z M404.107,539.992
	c-4.661-0.319-9.28-0.786-13.864-1.357c-27.669-16.466-51.689-52.019-68.092-98.681c25.64-6.611,53.307-10.718,81.957-12.065
	V539.992z M404.108,394.189c-31.915,1.409-62.837,6.064-91.589,13.603c-7.204-28.649-11.729-60.224-12.893-93.322h104.482V394.189z
	 M589.991,123.312c-10.343,5.242-21.34,9.961-32.911,14.112c-8.061-21.6-17.754-40.968-28.77-57.706
	C551.124,91.009,571.906,105.777,589.991,123.312z M437.766,55.288c8.264,0.575,16.418,1.552,24.443,2.93
	c24.84,16.2,46.571,47.854,62.215,89.013c-27.117,6.766-56.375,10.779-86.658,11.671V55.288z M437.766,192.56
	c33.817-0.941,66.615-5.519,97.06-13.311c8.44,30.789,13.724,65.272,14.98,101.562h-112.04V192.56z M437.766,314.47h112.029
	c-1.161,33.015-5.664,64.506-12.842,93.087c-30.888-8.06-64.368-12.714-99.188-13.648V314.47z M461.67,537.161
	c-7.848,1.324-15.826,2.279-23.904,2.827h-0.002V427.569c31.227,0.938,61.535,5.22,89.479,12.434
	C511.33,485.247,488.275,520.091,461.67,537.161z M528.043,515.698c12.361-18.711,23.046-40.805,31.673-65.546
	c12.782,4.694,24.839,10.071,35.997,16.071C576.266,486.375,553.413,503.184,528.043,515.698z M617.808,439.86
	c-14.844-8.518-31.075-15.911-48.382-22.18c8-31.546,12.916-66.324,14.074-103.204h79.795
	C660.088,361.092,643.698,404.113,617.808,439.86z M583.504,280.813c-1.236-40.104-6.908-77.733-16.174-111.416
	c16.279-5.772,31.577-12.571,45.722-20.286c28.638,36.94,46.847,82.301,50.235,131.702H583.504z"/>
</svg>
