<?xml version="1.0" encoding="utf-8"?>
<!-- Generator: Adobe Illustrator 16.0.0, SVG Export Plug-In . SVG Version: 6.00 Build 0)  -->
<!DOCTYPE svg PUBLIC "-//W3C//DTD SVG 1.1//EN" "http://www.w3.org/Graphics/SVG/1.1/DTD/svg11.dtd">
<svg version="1.1" id="Layer_1" xmlns="http://www.w3.org/2000/svg" xmlns:xlink="http://www.w3.org/1999/xlink" x="0px" y="0px"
	 width="841.891px" height="595.281px" viewBox="0 0 841.891 595.281" enable-background="new 0 0 841.891 595.281"
	 xml:space="preserve">
<path fill="#503F9D" d="M445.663,408.709c-0.384,0.242-0.795,0.406-1.187,0.625c-0.411,0.228-0.832,0.448-1.254,0.66
	c-2.216,1.14-4.48,2.059-6.803,2.654c-0.239,0.065-0.481,0.096-0.719,0.15c-2.55,0.61-5.129,0.977-7.709,0.977c0,0-0.018,0-0.038,0
	h-0.02c-2.576,0-5.16-0.379-7.707-0.977c-0.24-0.051-0.481-0.085-0.721-0.15c-2.323-0.602-4.598-1.519-6.804-2.654
	c-0.42-0.212-0.84-0.433-1.252-0.66c-0.395-0.219-0.802-0.383-1.186-0.625L97.886,213.924c-0.575,3.303-0.928,6.667-0.928,10.126
	v312.586c0,32.702,26.503,59.204,59.199,59.204h543.574c32.7,0,59.198-26.502,59.198-59.204h0.04l0,0V224.05
	c0-3.466-0.35-6.823-0.927-10.126L445.663,408.709z"/>
<polygon fill="#503F9D" points="427.946,7.202 100.998,211.078 754.891,211.078 "/>
<path fill="#FFFFFF" d="M427.935,918.141c0.144,0,0.286-0.006,0.431-0.006h-0.86C427.649,918.135,427.791,918.141,427.935,918.141z"
	/>
<path fill="#FFFFFF" d="M-305.06,0c-164.377,0-297.634,133.261-297.634,297.637c0,164.372,133.257,297.645,297.634,297.645
	c164.376,0,297.645-133.271,297.645-297.645C-7.418,133.261-140.684,0-305.06,0z M-305.054,104.544l176.131,109.831h-352.263
	L-305.054,104.544z M-126.727,389.759L-126.727,389.759h-0.021c0,17.617-14.275,31.895-31.892,31.895h-292.832
	c-17.614,0-31.892-14.277-31.892-31.895V221.363c0-1.863,0.19-3.675,0.5-5.455l168.284,104.935c0.206,0.13,0.426,0.218,0.639,0.336
	c0.222,0.123,0.448,0.242,0.675,0.355c1.188,0.612,2.413,1.106,3.665,1.43c0.129,0.035,0.259,0.054,0.388,0.082
	c1.373,0.322,2.765,0.525,4.152,0.525h0.011c0.011,0,0.021,0,0.021,0c1.39,0,2.779-0.197,4.152-0.525
	c0.129-0.03,0.259-0.047,0.388-0.082c1.251-0.321,2.471-0.815,3.665-1.43c0.227-0.113,0.453-0.232,0.675-0.355
	c0.211-0.118,0.433-0.206,0.64-0.336l168.283-104.935c0.311,1.78,0.5,3.588,0.5,5.455L-126.727,389.759L-126.727,389.759z"/>
</svg>
