<?xml version="1.0" encoding="utf-8"?>
<!-- Generator: Adobe Illustrator 16.0.0, SVG Export Plug-In . SVG Version: 6.00 Build 0)  -->
<!DOCTYPE svg PUBLIC "-//W3C//DTD SVG 1.1//EN" "http://www.w3.org/Graphics/SVG/1.1/DTD/svg11.dtd">
<svg version="1.1" id="Layer_1" xmlns="http://www.w3.org/2000/svg" xmlns:xlink="http://www.w3.org/1999/xlink" x="0px" y="0px"
	 width="841.891px" height="595.281px" viewBox="0 0 841.891 595.281" enable-background="new 0 0 841.891 595.281"
	 xml:space="preserve">
<path fill="#503F9D" d="M540.557,2.958H306.319c-35.683,0-64.617,28.933-64.617,64.617V530.66c0,35.688,28.938,64.621,64.617,64.621
	h234.238c35.687,0,64.618-28.937,64.618-64.621V67.576C605.175,31.891,576.24,2.958,540.557,2.958z M423.448,573.583
	c-20.155,0-36.493-16.338-36.493-36.493s16.338-36.494,36.493-36.494c20.156,0,36.494,16.339,36.494,36.494
	S443.604,573.583,423.448,573.583z M545.951,450.158c0,10.864-9.287,19.717-20.7,19.717H321.635
	c-11.418,0-20.699-8.844-20.699-19.717V65.259c0-10.864,9.287-19.718,20.699-19.718h203.618c11.413,0,20.692,8.846,20.698,19.718
	V450.158z"/>
<circle fill="#FFFFFF" cx="423.448" cy="537.089" r="36.494"/>
<path fill="#FFFFFF" d="M525.253,45.541H321.635c-11.412,0-20.699,8.854-20.699,19.718v384.899c0,10.873,9.28,19.717,20.699,19.717
	h203.616c11.413,0,20.7-8.853,20.7-19.717V65.259C545.946,54.387,536.666,45.541,525.253,45.541z"/>
<path fill="#FFFFFF" d="M423.433,767.281c0.162,0,0.322-0.006,0.483-0.006h-0.968C423.11,767.275,423.27,767.281,423.433,767.281z"
	/>
<g>
	<g>
		<g>
			<circle fill="#FFFFFF" cx="-522.053" cy="448.613" r="23.252"/>
			<path fill="#FFFFFF" d="M-457.188,135.422h-129.735c-7.271,0-13.188,5.641-13.188,12.563v245.24
				c0,6.928,5.913,12.563,13.188,12.563h129.734c7.271,0,13.189-5.641,13.189-12.563v-245.24
				C-444.004,141.058-449.916,135.422-457.188,135.422z"/>
			<path fill="#FFFFFF" d="M-522.063,0c-164.375,0-297.631,133.266-297.631,297.634c0,164.369,133.256,297.646,297.631,297.646
				s297.646-133.271,297.646-297.646S-357.688,0-522.063,0z M-406.265,444.517c0,22.736-18.434,41.174-41.172,41.174h-149.245
				c-22.733,0-41.171-18.436-41.171-41.174V149.461c0-22.736,18.436-41.171,41.171-41.171h149.245
				c22.736,0,41.172,18.434,41.172,41.171V444.517z"/>
		</g>
	</g>
</g>
</svg>
