<?xml version="1.0" encoding="utf-8"?>
<!-- Generator: Adobe Illustrator 16.0.0, SVG Export Plug-In . SVG Version: 6.00 Build 0)  -->
<!DOCTYPE svg PUBLIC "-//W3C//DTD SVG 1.1//EN" "http://www.w3.org/Graphics/SVG/1.1/DTD/svg11.dtd">
<svg version="1.1" id="Layer_1" xmlns="http://www.w3.org/2000/svg" xmlns:xlink="http://www.w3.org/1999/xlink" x="0px" y="0px"
	 width="841.891px" height="595.281px" viewBox="0 0 841.891 595.281" enable-background="new 0 0 841.891 595.281"
	 xml:space="preserve">
<path fill="#FFFFFF" d="M-112.534,297.634c0-293.657,238.063-531.727,531.721-531.727h-744.064V829.374h744.064
	C125.529,829.374-112.534,591.283-112.534,297.634z"/>
<path fill="#503F9D" d="M503.03,432.191c-12.285,12.383-23.916,23.289-34.129,32.41c71.146,7.243,113.179,29.521,113.179,42.721
	c0,15.896-60.966,45.105-160.573,45.105c-99.61,0-160.565-29.209-160.565-45.105c0-12.934,40.334-34.668,108.985-42.334
	c-10.124-9.02-21.663-19.827-33.853-32.08c-63.026,11.623-111.911,36.707-111.911,74.426c0,53.746,99.28,81.881,197.344,81.881
	c98.072,0,197.35-28.135,197.35-81.881C618.856,468.828,567.948,443.493,503.03,432.191z"/>
<path fill="#503F9D" d="M408.782,425.615c0.054,0.055,0.112,0.102,0.176,0.157c3.685,3.284,7.13,6.277,10.239,8.937
	c46.523-39.75,163.592-150.697,163.592-260.264c0-89.614-72.884-163.665-162.479-165.08c-0.379,0-0.745-0.018-1.113-0.036
	c-0.37,0.019-0.738,0.036-1.113,0.036c-89.586,1.419-162.477,75.465-162.473,165.079
	C255.611,276.571,357.298,379.868,408.782,425.615z M335.145,157.877c0-47.279,38.326-85.605,85.605-85.605
	s85.605,38.326,85.605,85.605c0,47.278-38.326,85.605-85.605,85.605S335.145,205.155,335.145,157.877z"/>
<path fill="#FFFFFF" d="M419.187-234.093c293.657,0,531.737,238.069,531.737,531.727c0,293.651-238.08,531.74-531.737,531.74
	h752.027V-234.093H419.187z"/>
<circle fill="#FFFFFF" cx="420.75" cy="157.877" r="85.605"/>
</svg>
